<svg width="14" height="12" viewBox="0 0 14 12" fill="none" xmlns="http://www.w3.org/2000/svg">
  <path d="M4.38071 9.95858C5.00585 9.37613 5.89992 8.7083 7.00601 8.07036C7.10466 8.27715 7.16538 8.50672 7.17012 8.75099C7.18767 9.65834 6.46862 10.4087 5.56221 10.4281C5.10498 10.4372 4.68474 10.256 4.38071 9.95858ZM8.19605 10.1488C11.1282 8.52617 12.1499 7.06672 11.8691 6.37328C11.6438 5.81597 9.71478 6.23431 7.0302 7.67478C4.40775 9.08253 2.86245 10.7104 3.09391 11.1941C3.33961 11.7069 6.03273 11.3464 8.19557 10.1483M2.68032 1.33186L2.75573 1.24126C1.08711 2.44221 0 4.40111 0 6.61423C0 6.61613 0 6.6185 0 6.62087V11.982H2.01676C2.01676 11.982 1.9513 11.9597 1.94514 11.9583C1.6487 11.8515 1.54008 11.7591 1.41771 11.6343C1.16632 11.3772 0.804901 10.3001 3.22292 8.12016C3.8381 7.56522 4.7483 6.93296 5.68126 6.38609C5.96822 6.21818 6.24285 6.0664 6.3747 5.99146C5.98198 6.02609 5.30087 6.30261 4.73549 6.59905C4.00696 6.98087 2.47589 7.97123 1.91289 8.57834C1.90577 8.46972 1.8868 8.28664 1.76632 7.72791C1.65249 7.19905 1.32 6.19731 1.37028 5.06751C1.42482 3.83146 1.90055 3.12047 2.38055 2.59257C2.49249 2.46972 2.70308 2.25059 2.63383 2.0585C2.52569 1.77249 2.50292 1.5581 2.68032 1.33281M12.6683 4.70419C12.9055 4.80901 13.0008 4.90008 13.0027 4.90245C12.2481 2.07937 9.67304 0 6.61281 0C5.57692 0 4.59605 0.238577 3.72332 0.663557C3.72332 0.663557 3.80585 0.639368 3.84854 0.631304C4.17913 0.570593 4.3404 0.734704 4.55336 1.01502C4.65866 1.15352 4.95747 1.12221 5.10356 1.09708C5.37628 1.04964 6.03605 0.947194 6.89597 1.19621C8.69407 1.71794 9.81676 3.69154 10.6601 4.15304C11.1244 4.40727 11.5418 4.42862 11.9511 4.50593C12.2699 4.56569 12.5056 4.63209 12.6678 4.70372M4.59652 11.9829H13.1772V6.6147C13.1772 6.32063 13.1616 6.15937 13.1616 6.15937C12.4477 8.65091 7.97312 11.4213 4.59652 11.9825" fill="white"/>
</svg>
